<svg width="40" height="40" viewBox="0 0 40 40" fill="none" xmlns="http://www.w3.org/2000/svg">
<path d="M20 20.625C21.3807 20.625 22.5 19.5057 22.5 18.125C22.5 16.7443 21.3807 15.625 20 15.625C18.6193 15.625 17.5 16.7443 17.5 18.125C17.5 19.5057 18.6193 20.625 20 20.625Z" fill="white"/>
<path d="M-nan -nanL26.25 18.125C26.25 21.879 23.4663 25.0763 21.6144 26.7879C20.6885 27.6437 19.3115 27.6437 18.3856 26.7879C16.5337 25.0763 13.75 21.879 13.75 18.125C13.75 16.4674 14.4085 14.8777 15.5806 13.7056C16.7527 12.5335 18.3424 11.875 20 11.875C21.6576 11.875 23.2473 12.5335 24.4194 13.7056C25.5915 14.8777 26.25 16.4674 26.25 18.125L-nan -nanL-nan -nanZ" stroke="white" stroke-width="1.2" stroke-linecap="round" stroke-linejoin="round"/>
<rect x="0.5" y="0.5" width="39" height="39" rx="19.5" stroke="white" stroke-opacity="0.2"/>
</svg>
