<svg width="499" height="488" viewBox="0 0 499 488" fill="none" xmlns="http://www.w3.org/2000/svg">
<g opacity="0.2">
<path d="M247.771 499.726C306.621 467.156 309.387 359.752 253.948 259.833C198.51 159.913 105.862 105.315 47.0126 137.885C-11.8375 170.455 -14.6033 277.858 40.8346 377.778C96.2727 477.698 188.921 532.296 247.771 499.726Z" stroke="white" stroke-width="2" stroke-miterlimit="10" stroke-linecap="round" stroke-linejoin="round"/>
<path d="M210.894 443.575C242 426.36 236.752 357.496 199.172 289.763C161.592 222.031 105.912 181.079 74.8051 198.294C43.6986 215.509 48.9465 284.373 86.5261 352.106C124.106 419.839 179.787 460.791 210.894 443.575Z" stroke="white" stroke-width="2" stroke-miterlimit="10" stroke-linecap="round" stroke-linejoin="round"/>
<path d="M251.966 498.078L452.101 372.127C510.692 339.681 513.591 232.497 458.482 132.265C402.792 32.6127 310.556 -22.4279 251.966 10.5965L46.5409 137.393C74.5365 119.383 152.702 114.409 241.402 238.589C323.766 353.899 295.255 479.346 251.966 498.078Z" stroke="white" stroke-width="2" stroke-miterlimit="10" stroke-linecap="round" stroke-linejoin="round"/>
<path d="M333.27 306.438L385.721 318.228M365.391 286.108L353.601 338.559" stroke="white" stroke-width="2" stroke-linecap="round"/>
<path d="M212.891 116.367L265.342 128.157M245.012 96.0359L233.222 148.487" stroke="white" stroke-width="2" stroke-linecap="round"/>
<path d="M320.598 186.06L373.049 197.851M352.719 165.73L340.928 218.181" stroke="white" stroke-width="2" stroke-linecap="round"/>
<path d="M409.299 255.752L461.751 267.542M441.42 235.421L429.63 287.873" stroke="white" stroke-width="2" stroke-linecap="round"/>
<path d="M288.919 65.6825L341.371 77.4726M321.04 45.3518L309.25 97.8033" stroke="white" stroke-width="2" stroke-linecap="round"/>
</g>
</svg>
