<svg width="48" height="48" viewBox="0 0 48 48" fill="none" xmlns="http://www.w3.org/2000/svg">
<path d="M21.9191 1.06892C23.2071 0.310359 24.7929 0.31036 26.0809 1.06892L42.4142 10.6888C43.7021 11.4474 44.5 12.852 44.5 14.377V33.623C44.5 35.148 43.7021 36.5526 42.4142 37.3112L26.0809 46.9311C24.7929 47.6896 23.2071 47.6896 21.9191 46.9311L5.58578 37.3112C4.29793 36.5526 3.5 35.148 3.5 33.623V14.377C3.5 12.852 4.29793 11.4474 5.58578 10.6888L21.9191 1.06892Z" fill="white" stroke="#FF6A2A"/>
<path d="M20.5 32.9995C21.3284 32.9995 22 32.3279 22 31.4995C22 30.6711 21.3284 29.9995 20.5 29.9995C19.6716 29.9995 19 30.6711 19 31.4995C19 32.3279 19.6716 32.9995 20.5 32.9995Z" fill="#FF6A2A"/>
<path d="M29 32.9995C29.8284 32.9995 30.5 32.3279 30.5 31.4995C30.5 30.6711 29.8284 29.9995 29 29.9995C28.1716 29.9995 27.5 30.6711 27.5 31.4995C27.5 32.3279 28.1716 32.9995 29 32.9995Z" fill="#FF6A2A"/>
<path fill-rule="evenodd" clip-rule="evenodd" d="M14 15.5005L16.3121 15.5005C16.665 15.5003 17.0089 15.6151 17.2909 15.8275C17.5731 16.0401 17.7783 16.3389 17.8755 16.6786L18.432 18.6255H21V20.6255H19.0036L20.7542 26.7505H28.5989L29.3073 25.0005L31.2342 25.5362L30.1187 28.7505H19.2458L16.0303 17.5005L14 17.5005V15.5005Z" fill="#FF6A2A"/>
<path fill-rule="evenodd" clip-rule="evenodd" d="M32.2198 17.915L27.0778 24.3424L23.1903 19.9533L24.6875 18.6272L27 21.2381L30.658 16.6656L32.2198 17.915Z" fill="#FF6A2A"/>
</svg>
