<svg width="18" height="18" viewBox="0 0 18 18" fill="none" xmlns="http://www.w3.org/2000/svg">
<path d="M6.08325 16.4998C6.77361 16.4998 7.33325 15.9401 7.33325 15.2498C7.33325 14.5594 6.77361 13.9998 6.08325 13.9998C5.3929 13.9998 4.83325 14.5594 4.83325 15.2498C4.83325 15.9401 5.3929 16.4998 6.08325 16.4998Z" fill="white"/>
<path d="M13.1667 16.4998C13.8571 16.4998 14.4167 15.9401 14.4167 15.2498C14.4167 14.5594 13.8571 13.9998 13.1667 13.9998C12.4764 13.9998 11.9167 14.5594 11.9167 15.2498C11.9167 15.9401 12.4764 16.4998 13.1667 16.4998Z" fill="white"/>
<path fill-rule="evenodd" clip-rule="evenodd" d="M0.666626 1.91699L2.59097 1.91699C2.88475 1.91688 3.17096 2.01073 3.40563 2.18437C3.64053 2.35819 3.81136 2.60248 3.89224 2.88024L4.35538 4.47202H16.5L14.0765 12.7503H5.03272L2.35648 3.55221L0.666626 3.55221V1.91699ZM4.83115 6.10724L6.28822 11.1151H12.8231L14.2892 6.10724H4.83115Z" fill="white"/>
</svg>
