<svg width="20" height="20" viewBox="0 0 20 20" fill="none" xmlns="http://www.w3.org/2000/svg">
<path d="M6.5 18.9998C7.32843 18.9998 8 18.3282 8 17.4998C8 16.6713 7.32843 15.9998 6.5 15.9998C5.67157 15.9998 5 16.6713 5 17.4998C5 18.3282 5.67157 18.9998 6.5 18.9998Z" fill="#15181C"/>
<path d="M15 18.9998C15.8284 18.9998 16.5 18.3282 16.5 17.4998C16.5 16.6713 15.8284 15.9998 15 15.9998C14.1716 15.9998 13.5 16.6713 13.5 17.4998C13.5 18.3282 14.1716 18.9998 15 18.9998Z" fill="#15181C"/>
<path fill-rule="evenodd" clip-rule="evenodd" d="M0 1.50024L2.30922 1.50024C2.66175 1.5001 3.0052 1.61273 3.2868 1.8211C3.56869 2.02968 3.77369 2.32283 3.87074 2.65614L4.4265 4.56628H19L16.0919 14.5002H5.23932L2.02783 3.46251L0 3.46251V1.50024ZM4.99743 6.52855L6.74591 12.538H14.5878L16.3471 6.52855H4.99743Z" fill="#15181C"/>
</svg>
