<svg width="18" height="20" viewBox="0 0 18 20" fill="none" xmlns="http://www.w3.org/2000/svg">
<path fill-rule="evenodd" clip-rule="evenodd" d="M8.99984 8.33464C8.07936 8.33464 7.33317 9.08083 7.33317 10.0013C7.33317 10.9218 8.07936 11.668 8.99984 11.668C9.92031 11.668 10.6665 10.9218 10.6665 10.0013C10.6665 9.08083 9.92031 8.33464 8.99984 8.33464ZM5.6665 10.0013C5.6665 8.16035 7.15889 6.66797 8.99984 6.66797C10.8408 6.66797 12.3332 8.16035 12.3332 10.0013C12.3332 11.8423 10.8408 13.3346 8.99984 13.3346C7.15889 13.3346 5.6665 11.8423 5.6665 10.0013Z" fill="black" fill-opacity="0.2"/>
<path fill-rule="evenodd" clip-rule="evenodd" d="M8.99984 0.833984L17.3332 5.41732V14.584L8.99984 19.1673L0.666504 14.584V5.41732L8.99984 0.833984ZM2.56169 6.45967V13.5416L8.99984 17.0826L15.438 13.5416V6.45967L8.99984 2.91868L2.56169 6.45967Z" fill="black" fill-opacity="0.2"/>
</svg>
