<svg width="18" height="20" viewBox="0 0 18 20" fill="none" xmlns="http://www.w3.org/2000/svg">
<path fill-rule="evenodd" clip-rule="evenodd" d="M8.99976 8.00098C7.89519 8.00098 6.99976 8.89641 6.99976 10.001C6.99976 11.1055 7.89519 12.001 8.99976 12.001C10.1043 12.001 10.9998 11.1055 10.9998 10.001C10.9998 8.89641 10.1043 8.00098 8.99976 8.00098ZM4.99976 10.001C4.99976 7.79184 6.79062 6.00098 8.99976 6.00098C11.2089 6.00098 12.9998 7.79184 12.9998 10.001C12.9998 12.2101 11.2089 14.001 8.99976 14.001C6.79062 14.001 4.99976 12.2101 4.99976 10.001Z" fill="white"/>
<path fill-rule="evenodd" clip-rule="evenodd" d="M9 0L18 5V15L9 20L0 15V5L9 0ZM2.0468 6.13711V13.8629L9 17.7258L15.9532 13.8629V6.13711L9 2.27422L2.0468 6.13711Z" fill="white"/>
</svg>
