<svg width="16" height="18" viewBox="0 0 16 18" fill="none" xmlns="http://www.w3.org/2000/svg">
<path fill-rule="evenodd" clip-rule="evenodd" d="M7.99984 7.33415C7.07936 7.33415 6.33317 8.08034 6.33317 9.00081C6.33317 9.92129 7.07936 10.6675 7.99984 10.6675C8.92031 10.6675 9.6665 9.92129 9.6665 9.00081C9.6665 8.08034 8.92031 7.33415 7.99984 7.33415ZM4.6665 9.00081C4.6665 7.15986 6.15889 5.66748 7.99984 5.66748C9.84079 5.66748 11.3332 7.15986 11.3332 9.00081C11.3332 10.8418 9.84079 12.3341 7.99984 12.3341C6.15889 12.3341 4.6665 10.8418 4.6665 9.00081Z" fill="#15181C"/>
<path fill-rule="evenodd" clip-rule="evenodd" d="M8 0.666748L15.5 4.83341V13.1667L8 17.3334L0.5 13.1667V4.83341L8 0.666748ZM2.20566 5.78101V12.2192L8 15.4382L13.7943 12.2192V5.78101L8 2.56193L2.20566 5.78101Z" fill="#15181C"/>
</svg>
