<svg width="20" height="20" viewBox="0 0 20 20" fill="none" xmlns="http://www.w3.org/2000/svg">
<path fill-rule="evenodd" clip-rule="evenodd" d="M5 1L6 0H14L15 1V5.63795L19.7682 11.3598L20 12V19L19 20H16.5L15.7271 19.6346L14.0272 17.5641H13.4728L11.7729 19.6346L11 20H9L8.22713 19.6346L6.52717 17.5641H5.97283L4.27287 19.6346L3.5 20H1L0 19V12L0.231779 11.3598L5 5.63795V1ZM13 5V2H7V6L6.76822 6.64018L2 12.3621V18H3.02717L4.72713 15.9295L5.5 15.5641H7L7.77287 15.9295L9.47283 18H10.5272L12.2271 15.9295L13 15.5641H14.5L15.2729 15.9295L16.9728 18H18V12.362L13.5316 7H10V5H13Z" fill="white"/>
</svg>
