<svg width="130" height="130" viewBox="0 0 130 130" fill="none" xmlns="http://www.w3.org/2000/svg">
<circle cx="65" cy="65" r="65" fill="#F9F9F9"/>
<path d="M63.417 77.6667C63.417 73.4444 63.417 62.8889 63.417 58.6667C62.3614 58.6667 61.3059 58.6667 60.2503 58.6667C60.2503 62.8889 60.2503 73.4444 60.2503 77.6667C61.3059 77.6667 62.3614 77.6667 63.417 77.6667ZM74.5003 52.3333V50.75C74.5003 49.4902 73.9999 48.282 73.1091 47.3912C72.2183 46.5004 71.0101 46 69.7503 46H61.8337C60.5739 46 59.3657 46.5004 58.4749 47.3912C57.5841 48.282 57.0837 49.4902 57.0837 50.75V52.3333H49.167L49.167 55.5H52.3337V79.25C52.3337 80.5098 52.8341 81.718 53.7249 82.6088C54.6157 83.4996 55.8239 84 57.0837 84H74.5003C75.7601 84 76.9683 83.4996 77.8591 82.6088C78.7499 81.718 79.2503 80.5098 79.2503 79.25V55.5C80.3059 55.5 81.3614 55.5 82.417 55.5C82.417 54.4444 82.417 53.3889 82.417 52.3333C79.7781 52.3333 77.1392 52.3333 74.5003 52.3333ZM60.2503 50.75C60.2503 50.3301 60.4171 49.9273 60.7141 49.6304C61.011 49.3335 61.4137 49.1667 61.8337 49.1667H69.7503C70.1703 49.1667 70.573 49.3335 70.8699 49.6304C71.1668 49.9273 71.3337 50.3301 71.3337 50.75V52.3333H60.2503V50.75ZM76.0837 79.25C76.0837 79.6699 75.9168 80.0727 75.6199 80.3696C75.323 80.6665 74.9203 80.8333 74.5003 80.8333H57.0837C56.6637 80.8333 56.261 80.6665 55.9641 80.3696C55.6671 80.0727 55.5003 79.6699 55.5003 79.25V55.5H76.0837V79.25ZM69.7503 77.6667C70.1703 77.6667 71.3337 77.6667 71.3337 77.6667C71.3337 77.6667 71.3337 76.5033 71.3337 76.0833C71.3337 72.3889 71.3337 62.3611 71.3337 58.6667C70.2781 58.6667 69.2225 58.6667 68.167 58.6667C68.167 62.3611 68.167 72.3889 68.167 76.0833C68.167 76.5033 68.167 77.6667 68.167 77.6667C68.167 77.6667 69.3304 77.6667 69.7503 77.6667Z" fill="#FF6A2A"/>
</svg>
