<svg width="18" height="18" viewBox="0 0 18 18" fill="none" xmlns="http://www.w3.org/2000/svg">
<path d="M16.4998 10.6665C16.2788 10.6665 16.0669 10.7543 15.9106 10.9106C15.7543 11.0669 15.6665 11.2788 15.6665 11.4998V14.8332C15.6665 15.0542 15.5787 15.2661 15.4224 15.4224C15.2661 15.5787 15.0542 15.6665 14.8332 15.6665H3.1665C2.94549 15.6665 2.73353 15.5787 2.57725 15.4224C2.42097 15.2661 2.33317 15.0542 2.33317 14.8332V11.4998C2.33317 11.2788 2.24537 11.0669 2.08909 10.9106C1.93281 10.7543 1.72085 10.6665 1.49984 10.6665C1.27882 10.6665 1.06686 10.7543 0.910582 10.9106C0.754301 11.0669 0.666504 11.2788 0.666504 11.4998V14.8332C0.666504 15.4962 0.929896 16.1321 1.39874 16.6009C1.86758 17.0698 2.50346 17.3332 3.1665 17.3332H14.8332C15.4962 17.3332 16.1321 17.0698 16.6009 16.6009C17.0698 16.1321 17.3332 15.4962 17.3332 14.8332V11.4998C17.3332 11.2788 17.2454 11.0669 17.0891 10.9106C16.9328 10.7543 16.7209 10.6665 16.4998 10.6665ZM8.40817 12.0915C8.48742 12.1674 8.58088 12.2268 8.68317 12.2665C8.78292 12.3106 8.89078 12.3334 8.99984 12.3334C9.1089 12.3334 9.21675 12.3106 9.3165 12.2665C9.4188 12.2268 9.51225 12.1674 9.5915 12.0915L12.9248 8.75817C13.0818 8.60125 13.1699 8.38842 13.1699 8.1665C13.1699 7.94459 13.0818 7.73176 12.9248 7.57484C12.7679 7.41792 12.5551 7.32976 12.3332 7.32976C12.1113 7.32976 11.8984 7.41792 11.7415 7.57484L9.83317 9.4915V1.49984C9.83317 1.27882 9.74537 1.06686 9.58909 0.910582C9.43281 0.754301 9.22085 0.666504 8.99984 0.666504C8.77882 0.666504 8.56686 0.754301 8.41058 0.910582C8.2543 1.06686 8.1665 1.27882 8.1665 1.49984V9.4915L6.25817 7.57484C6.18047 7.49714 6.08823 7.4355 5.98671 7.39345C5.88519 7.3514 5.77639 7.32976 5.6665 7.32976C5.55662 7.32976 5.44781 7.3514 5.3463 7.39345C5.24478 7.4355 5.15254 7.49714 5.07484 7.57484C4.99714 7.65254 4.9355 7.74478 4.89345 7.8463C4.8514 7.94781 4.82976 8.05662 4.82976 8.1665C4.82976 8.27639 4.8514 8.38519 4.89345 8.48671C4.9355 8.58823 4.99714 8.68047 5.07484 8.75817L8.40817 12.0915Z" fill="#15181C"/>
</svg>
