<svg width="91" height="90" viewBox="0 0 91 90" fill="none" xmlns="http://www.w3.org/2000/svg">
<path d="M45.5234 1.19364L59.5178 25.2205L59.6287 25.4109L59.8441 25.4576L87.0195 31.3423L68.4931 52.0765L68.3463 52.2408L68.3685 52.46L71.1694 80.1239L45.7251 68.9114L45.5234 68.8225L45.3218 68.9114L19.8775 80.1239L22.6784 52.46L22.7006 52.2408L22.5538 52.0765L4.02736 31.3423L31.2028 25.4576L31.4181 25.4109L31.529 25.2205L45.5234 1.19364Z" stroke="#15181C"/>
<path d="M54.9969 43.7753C54.9969 49.0082 50.7548 53.2503 45.5219 53.2503C40.289 53.2503 36.0469 49.0082 36.0469 43.7753C36.0469 38.5424 40.289 34.3003 45.5219 34.3003C50.7548 34.3003 54.9969 38.5424 54.9969 43.7753Z" stroke="#15181C"/>
</svg>
