<svg width="24" height="24" viewBox="0 0 24 24" fill="none" xmlns="http://www.w3.org/2000/svg">
<path fill-rule="evenodd" clip-rule="evenodd" d="M9.38592 5.64141C8.66885 5.26044 7.841 5.13888 7.04356 5.298C6.24618 5.45712 5.52996 5.88672 5.01607 6.51214C4.50229 7.13743 4.22222 7.92001 4.22222 8.72667C4.22222 11.2262 6.10442 13.6876 8.29651 15.656C9.35838 16.6095 10.4254 17.3871 11.2293 17.9272C11.529 18.1286 11.7907 18.2959 12 18.426C12.2093 18.2959 12.471 18.1286 12.7707 17.9272C13.5746 17.3871 14.6416 16.6095 15.7035 15.656C17.8956 13.6876 19.7778 11.2262 19.7778 8.72667C19.7778 7.92001 19.4977 7.13743 18.9839 6.51214C18.47 5.88672 17.7538 5.45712 16.9564 5.298C16.159 5.13888 15.3312 5.26044 14.6141 5.64141C13.8971 6.02231 13.336 6.63849 13.0248 7.38383L12 9.8377L10.9752 7.38383C10.664 6.63849 10.1029 6.02231 9.38592 5.64141ZM12 21L11.4589 20.6977L11.4559 20.696L11.4491 20.6921L11.4259 20.679C11.4064 20.6679 11.3786 20.652 11.3432 20.6314C11.2723 20.5902 11.1707 20.5303 11.0428 20.4526C10.7871 20.2973 10.4254 20.0706 9.99296 19.7801C9.13019 19.2005 7.97496 18.3596 6.8146 17.3176C4.56225 15.2951 2 12.2578 2 8.72667C2 7.40108 2.46036 6.11729 3.30148 5.09362C4.14248 4.07009 5.31191 3.37003 6.61013 3.11098C7.90827 2.85194 9.2565 3.04953 10.4258 3.67074C11.0228 3.98794 11.5545 4.40571 12 4.90142C12.4455 4.40571 12.9772 3.98794 13.5742 3.67074C14.7435 3.04953 16.0917 2.85194 17.3899 3.11098C18.6881 3.37003 19.8575 4.07009 20.6985 5.09362C21.5396 6.11729 22 7.40108 22 8.72667C22 12.2578 19.4378 15.2951 17.1854 17.3176C16.025 18.3596 14.8698 19.2005 14.007 19.7801C13.5746 20.0706 13.2129 20.2973 12.9572 20.4526C12.8293 20.5303 12.7277 20.5902 12.6568 20.6314C12.6214 20.652 12.5936 20.6679 12.5741 20.679L12.5509 20.6921L12.5441 20.696L12.5419 20.6972L12 21Z" fill="black" fill-opacity="0.2"/>
</svg>
