<svg width="20" height="18" viewBox="0 0 20 18" fill="none" xmlns="http://www.w3.org/2000/svg">
<path d="M10 18L9.45887 17.6977L9.45587 17.696L9.44906 17.6921L9.42594 17.679C9.40638 17.6679 9.37861 17.652 9.34317 17.6314C9.27232 17.5902 9.17074 17.5303 9.04282 17.4526C8.78712 17.2973 8.42543 17.0706 7.99296 16.7801C7.13019 16.2005 5.97496 15.3596 4.8146 14.3176C2.56225 12.2951 0 9.25782 0 5.72667C0 4.40108 0.460364 3.11729 1.30148 2.09362C2.14248 1.07009 3.31191 0.370031 4.61013 0.110978C5.90827 -0.148063 7.2565 0.0495284 8.42576 0.670741C9.02279 0.987937 9.55454 1.40571 10 1.90142C10.4455 1.40571 10.9772 0.987937 11.5742 0.670741C12.7435 0.0495284 14.0917 -0.148063 15.3899 0.110978C16.6881 0.370031 17.8575 1.07009 18.6985 2.09362C19.5396 3.11729 20 4.40108 20 5.72667C20 9.25782 17.4378 12.2951 15.1854 14.3176C14.025 15.3596 12.8698 16.2005 12.007 16.7801C11.5746 17.0706 11.2129 17.2973 10.9572 17.4526C10.8293 17.5303 10.7277 17.5902 10.6568 17.6314C10.6214 17.652 10.5936 17.6679 10.5741 17.679L10.5509 17.6921L10.5441 17.696L10.5419 17.6972L10.5405 17.698L10 18Z" fill="#FF6A2A"/>
</svg>
