<svg width="20" height="18" viewBox="0 0 20 18" fill="none" xmlns="http://www.w3.org/2000/svg">
<path fill-rule="evenodd" clip-rule="evenodd" d="M7.38592 2.64141C6.66885 2.26044 5.841 2.13888 5.04356 2.298C4.24618 2.45712 3.52996 2.88672 3.01607 3.51214C2.50229 4.13743 2.22222 4.92001 2.22222 5.72667C2.22222 8.22625 4.10442 10.6876 6.29651 12.656C7.35838 13.6095 8.42536 14.3871 9.22926 14.9272C9.52904 15.1286 9.79072 15.2959 10 15.426C10.2093 15.2959 10.471 15.1286 10.7707 14.9272C11.5746 14.3871 12.6416 13.6095 13.7035 12.656C15.8956 10.6876 17.7778 8.22625 17.7778 5.72667C17.7778 4.92001 17.4977 4.13743 16.9839 3.51214C16.47 2.88672 15.7538 2.45712 14.9564 2.298C14.159 2.13888 13.3312 2.26044 12.6141 2.64141C11.8971 3.02231 11.336 3.63849 11.0248 4.38383L10 6.8377L8.97523 4.38383C8.66396 3.63849 8.10285 3.02231 7.38592 2.64141ZM10 18L9.45887 17.6977L9.45587 17.696L9.44906 17.6921L9.42594 17.679C9.40638 17.6679 9.37861 17.652 9.34317 17.6314C9.27232 17.5902 9.17074 17.5303 9.04282 17.4526C8.78712 17.2973 8.42543 17.0706 7.99296 16.7801C7.13019 16.2005 5.97496 15.3596 4.8146 14.3176C2.56225 12.2951 0 9.25782 0 5.72667C0 4.40108 0.460364 3.11729 1.30148 2.09362C2.14248 1.07009 3.31191 0.370031 4.61013 0.110978C5.90827 -0.148063 7.2565 0.0495283 8.42576 0.670741C9.02279 0.987937 9.55454 1.40571 10 1.90142C10.4455 1.40571 10.9772 0.987937 11.5742 0.670741C12.7435 0.0495283 14.0917 -0.148063 15.3899 0.110978C16.6881 0.370031 17.8575 1.07009 18.6985 2.09362C19.5396 3.11729 20 4.40108 20 5.72667C20 9.25782 17.4378 12.2951 15.1854 14.3176C14.025 15.3596 12.8698 16.2005 12.007 16.7801C11.5746 17.0706 11.2129 17.2973 10.9572 17.4526C10.8293 17.5303 10.7277 17.5902 10.6568 17.6314C10.6214 17.652 10.5936 17.6679 10.5741 17.679L10.5509 17.6921L10.5441 17.696L10.5419 17.6972L10 18Z" fill="#15181C"/>
</svg>
