<svg width="201" height="22" viewBox="0 0 201 22" fill="none" xmlns="http://www.w3.org/2000/svg">
<path fill-rule="evenodd" clip-rule="evenodd" d="M19.864 0.963637V22H13.8275V10.2292L6.04997 22H0V0.963637H6.04997V12.8236L13.8682 0.963637H19.864Z" fill="white"/>
<path fill-rule="evenodd" clip-rule="evenodd" d="M21.9436 0.963617H28.3662V8.32805H35.3782V0.963617H41.8279V22H35.3782V13.4962H28.3662V22H21.9436V0.963617Z" fill="white"/>
<path fill-rule="evenodd" clip-rule="evenodd" d="M146.88 0.963658V22H140.85V10.2293L133.066 22H127.016V0.963658H133.066V12.8236L140.891 0.963658H146.88Z" fill="white"/>
<path d="M79.3947 18.4653H64.9913V22H79.3947V18.4653Z" fill="white"/>
<path fill-rule="evenodd" clip-rule="evenodd" d="M79.3947 4.49831V0.963658H64.9913V16.4681H79.3947V12.9334H68.5549V10.3871H79.3947V7.03777H68.5549V4.49831H79.3947Z" fill="white"/>
<path fill-rule="evenodd" clip-rule="evenodd" d="M105.261 0.963658H111.677V8.3281H118.696V0.963658H125.139V22H118.696V13.4962H111.677V22H105.261V0.963658Z" fill="white"/>
<path d="M168.729 0.963658H161.656L155.843 10.14V0.963658H149.44V22H155.843V13.9218L161.385 22H168.729L161.54 11.3549L168.729 0.963658Z" fill="white"/>
<path fill-rule="evenodd" clip-rule="evenodd" d="M184.331 0.963658H177.333L169.528 22H176.086L177.089 18.5271H184.575L185.578 22H192.136L184.331 0.963658ZM178.478 13.9767L180.836 6.17298L183.193 13.9767H178.478Z" fill="white"/>
<path fill-rule="evenodd" clip-rule="evenodd" d="M43.698 0.963658V6.81815H50.2358V22H56.6584V6.81815H63.2029V0.963658H43.698Z" fill="white"/>
<path fill-rule="evenodd" clip-rule="evenodd" d="M96.515 11.0391L103.026 0.963658H95.9662L92.3891 7.23681L88.8187 0.963658H81.7525L88.2632 11.0391L81.1021 22H88.2632L92.3755 15.2395L92.3891 15.267L92.4026 15.2395L96.515 22H103.683L96.515 11.0391Z" fill="white"/>
<path d="M195.125 6.85243V2.14138H196.512C196.946 2.14138 197.293 2.18897 197.553 2.28414C197.82 2.37931 198.012 2.52939 198.127 2.73438C198.25 2.93205 198.312 3.18828 198.312 3.50308C198.312 3.7886 198.232 4.03385 198.073 4.23884C197.914 4.44383 197.676 4.60855 197.358 4.73301L198.659 6.85243H197.791L196.675 4.93067H195.873V6.85243H195.125ZM195.873 4.34865H196.512C196.852 4.34865 197.105 4.27911 197.271 4.14001C197.445 4.00091 197.531 3.79592 197.531 3.52505C197.531 3.21757 197.437 3.01258 197.249 2.91008C197.069 2.80027 196.809 2.74536 196.469 2.74536H195.873V4.34865ZM196.534 9.04872C195.92 9.04872 195.342 8.93158 194.8 8.69731C194.258 8.46304 193.781 8.14092 193.369 7.73094C192.964 7.31365 192.646 6.83046 192.415 6.28139C192.184 5.73232 192.068 5.14664 192.068 4.52436C192.068 3.89475 192.184 3.30908 192.415 2.76733C192.646 2.21825 192.964 1.73873 193.369 1.32876C193.781 0.911461 194.258 0.585677 194.8 0.351406C195.342 0.117135 195.92 0 196.534 0C197.155 0 197.734 0.117135 198.268 0.351406C198.81 0.585677 199.284 0.911461 199.688 1.32876C200.1 1.73873 200.422 2.21825 200.653 2.76733C200.884 3.30908 201 3.89475 201 4.52436C201 5.14664 200.884 5.73232 200.653 6.28139C200.422 6.83046 200.1 7.31365 199.688 7.73094C199.284 8.14092 198.81 8.46304 198.268 8.69731C197.734 8.93158 197.155 9.04872 196.534 9.04872ZM196.534 8.43375C197.069 8.43375 197.567 8.33492 198.03 8.13725C198.5 7.93227 198.912 7.65041 199.266 7.29168C199.62 6.93296 199.894 6.51932 200.089 6.05078C200.292 5.57492 200.393 5.06611 200.393 4.52436C200.393 3.98261 200.292 3.47746 200.089 3.00892C199.894 2.53305 199.62 2.11576 199.266 1.75703C198.912 1.3983 198.5 1.12011 198.03 0.922442C197.567 0.717455 197.069 0.614961 196.534 0.614961C195.999 0.614961 195.497 0.717455 195.027 0.922442C194.565 1.12011 194.156 1.3983 193.802 1.75703C193.448 2.11576 193.17 2.53305 192.968 3.00892C192.773 3.47746 192.675 3.98261 192.675 4.52436C192.675 5.06611 192.773 5.57492 192.968 6.05078C193.17 6.51932 193.448 6.93296 193.802 7.29168C194.156 7.65041 194.565 7.93227 195.027 8.13725C195.497 8.33492 195.999 8.43375 196.534 8.43375Z" fill="white"/>
</svg>
