<svg width="230" height="24" viewBox="0 0 230 24" fill="none" xmlns="http://www.w3.org/2000/svg">
<path fill-rule="evenodd" clip-rule="evenodd" d="M22.7299 1.05124V24H15.8226V11.1592L6.92285 24H0V1.05124H6.92285V13.9894L15.8691 1.05124H22.7299Z" fill="#001F42"/>
<path fill-rule="evenodd" clip-rule="evenodd" d="M25.1096 1.05122H32.4588V9.08515H40.4825V1.05122H47.8628V24H40.4825V14.7231H32.4588V24H25.1096V1.05122Z" fill="#001F42"/>
<path fill-rule="evenodd" clip-rule="evenodd" d="M168.071 1.05126V24H161.172V11.1592L152.264 24H145.342V1.05126H152.264V13.9894L161.218 1.05126H168.071Z" fill="#FF6A2A"/>
<path d="M90.8496 20.144H74.3681V24H90.8496V20.144Z" fill="#FF6A2A"/>
<path fill-rule="evenodd" clip-rule="evenodd" d="M90.8496 4.90725V1.05126H74.3681V17.9652H90.8496V14.1092H78.4459V11.3314H90.8496V7.67757H78.4459V4.90725H90.8496Z" fill="#FF6A2A"/>
<path fill-rule="evenodd" clip-rule="evenodd" d="M120.448 1.05126H127.79V9.0852H135.821V1.05126H143.194V24H135.821V14.7232H127.79V24H120.448V1.05126Z" fill="#FF6A2A"/>
<path d="M193.072 1.05126H184.979L178.327 11.0619V1.05126H171.002V24H178.327V15.1874L184.669 24H193.072L184.847 12.3871L193.072 1.05126Z" fill="#FF6A2A"/>
<path fill-rule="evenodd" clip-rule="evenodd" d="M210.926 1.05126H202.918L193.988 24H201.492L202.639 20.2114H211.206L212.353 24H219.857L210.926 1.05126ZM204.228 15.2473L206.926 6.73416L209.624 15.2473H204.228Z" fill="#FF6A2A"/>
<path fill-rule="evenodd" clip-rule="evenodd" d="M50.0027 1.05126V7.43798H57.4837V24H64.833V7.43798H72.3217V1.05126H50.0027Z" fill="#FF6A2A"/>
<path fill-rule="evenodd" clip-rule="evenodd" d="M110.44 12.0427L117.89 1.05126H109.812L105.719 7.89471L101.633 1.05126H93.5477L100.998 12.0427L92.8034 24H100.998L105.703 16.625L105.719 16.6549L105.734 16.625L110.44 24H118.642L110.44 12.0427Z" fill="#FF6A2A"/>
<path d="M223.277 7.47537V2.33605H224.865C225.361 2.33605 225.758 2.38797 226.056 2.49179C226.362 2.59562 226.581 2.75934 226.713 2.98296C226.854 3.1986 226.924 3.47813 226.924 3.82155C226.924 4.13302 226.833 4.40057 226.651 4.62419C226.469 4.84781 226.196 5.02751 225.832 5.16328L227.321 7.47537H226.328L225.051 5.37891H224.133V7.47537H223.277ZM224.133 4.74399H224.865C225.253 4.74399 225.543 4.66811 225.733 4.51637C225.932 4.36463 226.031 4.14101 226.031 3.8455C226.031 3.51007 225.923 3.28645 225.708 3.17464C225.502 3.05484 225.204 2.99494 224.815 2.99494H224.133V4.74399ZM224.89 9.87133C224.187 9.87133 223.525 9.74354 222.905 9.48797C222.285 9.23241 221.739 8.881 221.268 8.43375C220.805 7.97852 220.441 7.45141 220.176 6.85243C219.912 6.25344 219.779 5.61452 219.779 4.93566C219.779 4.24882 219.912 3.6099 220.176 3.0189C220.441 2.41991 220.805 1.8968 221.268 1.44955C221.739 0.994321 222.285 0.638921 222.905 0.383353C223.525 0.127784 224.187 0 224.89 0C225.601 0 226.262 0.127784 226.874 0.383353C227.494 0.638921 228.036 0.994321 228.499 1.44955C228.97 1.8968 229.338 2.41991 229.603 3.0189C229.868 3.6099 230 4.24882 230 4.93566C230 5.61452 229.868 6.25344 229.603 6.85243C229.338 7.45141 228.97 7.97852 228.499 8.43375C228.036 8.881 227.494 9.23241 226.874 9.48797C226.262 9.74354 225.601 9.87133 224.89 9.87133ZM224.89 9.20046C225.502 9.20046 226.072 9.09264 226.601 8.87701C227.139 8.65338 227.61 8.3459 228.015 7.95456C228.421 7.56322 228.735 7.11199 228.958 6.60085C229.19 6.08173 229.305 5.52666 229.305 4.93566C229.305 4.34466 229.19 3.79359 228.958 3.28246C228.735 2.76333 228.421 2.3081 228.015 1.91676C227.61 1.52542 227.139 1.22194 226.601 1.0063C226.072 0.782678 225.502 0.670867 224.89 0.670867C224.278 0.670867 223.703 0.782678 223.166 1.0063C222.636 1.22194 222.169 1.52542 221.764 1.91676C221.359 2.3081 221.04 2.76333 220.809 3.28246C220.586 3.79359 220.474 4.34466 220.474 4.93566C220.474 5.52666 220.586 6.08173 220.809 6.60085C221.04 7.11199 221.359 7.56322 221.764 7.95456C222.169 8.3459 222.636 8.65338 223.166 8.87701C223.703 9.09264 224.278 9.20046 224.89 9.20046Z" fill="#FF6A2A"/>
</svg>
