<svg width="18" height="18" viewBox="0 0 18 18" fill="none" xmlns="http://www.w3.org/2000/svg">
<path d="M3.03741 11.9587C3.56485 13.0238 4.36749 13.9286 5.36217 14.5793C6.35686 15.23 7.50742 15.6029 8.69468 15.6595C9.88195 15.716 11.0627 15.4541 12.1147 14.9008C13.1668 14.3476 14.0517 13.5231 14.678 12.5129C15.3042 11.5027 15.649 10.3434 15.6766 9.15507C15.7042 7.96678 15.4136 6.79272 14.8349 5.75451C14.2562 4.71629 13.4104 3.85167 12.3852 3.2502C11.36 2.64874 10.1927 2.3323 9.00407 2.33367C7.76147 2.32829 6.54254 2.67336 5.48715 3.32929C4.43177 3.98522 3.5827 4.92543 3.03741 6.042L1.53741 5.292C2.37357 3.60929 3.75388 2.25855 5.4543 1.45902C7.15473 0.659499 9.07546 0.458116 10.9047 0.887563C12.734 1.31701 14.3645 2.35208 15.5315 3.82477C16.6985 5.29746 17.3335 7.12132 17.3335 9.00033C17.3335 10.8793 16.6985 12.7032 15.5315 14.1759C14.3645 15.6486 12.734 16.6837 10.9047 17.1131C9.07546 17.5426 7.15473 17.3412 5.4543 16.5416C3.75388 15.7421 2.37357 14.3914 1.53741 12.7087L3.03741 11.9587ZM0.67074 8.167H9.49574L7.57907 6.25867L8.76241 5.07533L12.0957 8.40867C12.4043 8.73096 12.4067 9.26719 12.0957 9.592L8.76241 12.9253L7.57907 11.742L9.49574 9.83367H0.67074V8.167Z" fill="#15181C"/>
</svg>
