<svg width="48" height="48" viewBox="0 0 48 48" fill="none" xmlns="http://www.w3.org/2000/svg">
<path d="M21.5 1.44338C23.047 0.550211 24.953 0.550212 26.5 1.44338L42.2846 10.5566C43.8316 11.4498 44.7846 13.1004 44.7846 14.8868V33.1133C44.7846 34.8996 43.8316 36.5502 42.2846 37.4434L26.5 46.5566C24.953 47.4498 23.047 47.4498 21.5 46.5566L5.71539 37.4434C4.16839 36.5502 3.21539 34.8996 3.21539 33.1132V14.8868C3.21539 13.1004 4.16839 11.4498 5.71539 10.5566L21.5 1.44338Z" fill="#FF6A2A"/>
<path d="M29 29H19V31H29V29Z" fill="white"/>
<path d="M33 23H15V25H33V23Z" fill="white"/>
<path d="M29 17H19V19H29V17Z" fill="white"/>
</svg>
