<svg width="16" height="21" viewBox="0 0 16 21" fill="none" xmlns="http://www.w3.org/2000/svg">
<path fill-rule="evenodd" clip-rule="evenodd" d="M-0.000854492 0.997559H6.9998V19.9998H-0.000854492V0.997559ZM1.99915 2.99756V9.77893L4.9998 9.1788V2.99756H1.99915ZM4.9998 11.2184L1.99915 11.8185V13.7794L4.9998 13.1793V11.2184ZM4.9998 15.2189L1.99915 15.8191V17.9998H4.9998V15.2189Z" fill="white"/>
<path fill-rule="evenodd" clip-rule="evenodd" d="M9.00006 2.01576L10.0001 0.997559H15.0007L16.0007 2.01576V17.2907L15.7689 17.9426L13.2686 20.9976H11.7322L9.23184 17.9426L9.00006 17.2907V2.01576ZM11.0001 3.03396V9.06225L14.0007 6.61804V3.03396H11.0001ZM14.0007 9.22591L11.0001 11.6701V14.1539L14.0007 11.7097V9.22591ZM14.0007 14.3176L11.0001 16.7618V16.9221L12.5004 18.7552L14.0007 16.9221V14.3176Z" fill="white"/>
</svg>
