<svg width="22" height="22" viewBox="0 0 22 22" fill="none" xmlns="http://www.w3.org/2000/svg">
<path fill-rule="evenodd" clip-rule="evenodd" d="M6.60299 2.38527L2.32777 10.9211L2.07109 19.917L11.585 19.537L19.5848 15.3847L14.6007 7.3965L6.60299 2.38527ZM5.1103 0.843046C5.0845 0.922704 5.05854 1.00287 5.02105 1.07773L0.440371 10.2235C0.375058 10.3539 0.339059 10.497 0.334899 10.6428L0.058999 20.3123C0.0564914 20.4002 0.0399891 20.4872 0.0235947 20.5736L0.0226463 20.5786C-0.136128 21.4156 0.643892 22.1507 1.50144 21.9706C1.58907 21.9522 1.67745 21.9344 1.76693 21.9308L11.8877 21.5265C12.0345 21.5206 12.1781 21.4825 12.3085 21.4149L20.8896 16.9608C20.9714 16.9184 21.0596 16.8897 21.1474 16.8619C21.9836 16.5968 22.2738 15.5756 21.6977 14.9318C21.6346 14.8612 21.5712 14.7901 21.5211 14.7098L16.1754 6.14218C16.0951 6.01346 15.9865 5.9047 15.858 5.82414L7.35412 0.495744C7.2739 0.445475 7.2028 0.381912 7.13239 0.318611C6.47213 -0.275048 5.38211 0.00380468 5.11126 0.840098L5.1103 0.843046Z" fill="white"/>
<path fill-rule="evenodd" clip-rule="evenodd" d="M9.46012 10.7973C8.43866 10.7973 7.61061 11.6254 7.61061 12.6468C7.61061 13.6683 8.43866 14.4963 9.46012 14.4963C10.4816 14.4963 11.3096 13.6683 11.3096 12.6468C11.3096 11.6254 10.4816 10.7973 9.46012 10.7973ZM5.81061 12.6468C5.81061 10.6313 7.44455 8.99731 9.46012 8.99731C11.4757 8.99731 13.1096 10.6313 13.1096 12.6468C13.1096 14.6624 11.4757 16.2963 9.46012 16.2963C7.44455 16.2963 5.81061 14.6624 5.81061 12.6468Z" fill="white"/>
</svg>
