<svg width="16" height="16" viewBox="0 0 16 16" fill="none" xmlns="http://www.w3.org/2000/svg">
<path fill-rule="evenodd" clip-rule="evenodd" d="M7.59168 2.10241C4.56004 2.10241 2.10241 4.56004 2.10241 7.59168C2.10241 10.6233 4.56004 13.0809 7.59168 13.0809C10.6233 13.0809 13.0809 10.6233 13.0809 7.59168C13.0809 4.56004 10.6233 2.10241 7.59168 2.10241ZM0.5 7.59168C0.5 3.67505 3.67505 0.5 7.59168 0.5C11.5083 0.5 14.6834 3.67505 14.6834 7.59168C14.6834 9.26132 14.1064 10.7962 13.1409 12.0078L15.5 14.3669L14.3669 15.5L12.0078 13.1409C10.7962 14.1064 9.26132 14.6834 7.59168 14.6834C3.67505 14.6834 0.5 11.5083 0.5 7.59168Z" fill="white"/>
</svg>
