<svg width="14" height="16" viewBox="0 0 14 16" fill="none" xmlns="http://www.w3.org/2000/svg">
<path d="M6.25 12.5C6.25 10.5 6.25 8.5 6.25 6.5C5.75 6.5 5.25 6.5 4.75 6.5C4.75 8.5 4.75 10.5 4.75 12.5C5.25 12.5 5.75 12.5 6.25 12.5ZM10 3.5V2.75C10 2.15326 9.76295 1.58097 9.34099 1.15901C8.91903 0.737053 8.34674 0.5 7.75 0.5H6.25C5.65326 0.5 5.08097 0.737053 4.65901 1.15901C4.23705 1.58097 4 2.15326 4 2.75V3.5H0.25L0.250022 5H1.75V13.25C1.75 13.8467 1.98705 14.419 2.40901 14.841C2.83097 15.2629 3.40326 15.5 4 15.5H10C10.5967 15.5 11.169 15.2629 11.591 14.841C12.0129 14.419 12.25 13.8467 12.25 13.25V5C12.75 5 13.25 5 13.75 5C13.75 4.5 13.75 4 13.75 3.5C12.5 3.5 11.25 3.5 10 3.5ZM5.5 2.75C5.5 2.55109 5.57902 2.36032 5.71967 2.21967C5.86032 2.07902 6.05109 2 6.25 2H7.75C7.94891 2 8.13968 2.07902 8.28033 2.21967C8.42098 2.36032 8.5 2.55109 8.5 2.75V3.5H5.5V2.75ZM10.75 13.25C10.75 13.4489 10.671 13.6397 10.5303 13.7803C10.3897 13.921 10.1989 14 10 14H4C3.80109 14 3.61032 13.921 3.46967 13.7803C3.32902 13.6397 3.25 13.4489 3.25 13.25V5H10.75V13.25ZM8.5 12.5C8.69891 12.5 9.25 12.5 9.25 12.5C9.25 12.5 9.25 11.9489 9.25 11.75C9.25 10 9.25 8.25 9.25 6.5C8.75 6.5 8.25 6.5 7.75 6.5C7.75 8.25 7.75 10 7.75 11.75C7.75 11.9489 7.75 12.5 7.75 12.5C7.75 12.5 8.30109 12.5 8.5 12.5Z" fill="#15181C"/>
</svg>
