<svg width="18" height="20" viewBox="0 0 18 20" fill="none" xmlns="http://www.w3.org/2000/svg">
<path d="M8 16C8 13.3333 8 10.6667 8 8C7.33333 8 6.66667 8 6 8C6 10.6667 6 13.3333 6 16C6.66667 16 7.33333 16 8 16ZM13 4V3C13 2.20435 12.6839 1.44129 12.1213 0.87868C11.5587 0.316071 10.7957 0 10 0H8C7.20435 0 6.44129 0.316071 5.87868 0.87868C5.31607 1.44129 5 2.20435 5 3V4H0L2.99215e-05 6H2V17C2 17.7956 2.31607 18.5587 2.87868 19.1213C3.44129 19.6839 4.20435 20 5 20H13C13.7957 20 14.5587 19.6839 15.1213 19.1213C15.6839 18.5587 16 17.7956 16 17V6C16.6667 6 17.3333 6 18 6C18 5.33333 18 4.66667 18 4C16.3333 4 14.6667 4 13 4ZM7 3C7 2.73478 7.10536 2.48043 7.29289 2.29289C7.48043 2.10536 7.73478 2 8 2H10C10.2652 2 10.5196 2.10536 10.7071 2.29289C10.8946 2.48043 11 2.73478 11 3V4H7V3ZM14 17C14 17.2652 13.8946 17.5196 13.7071 17.7071C13.5196 17.8946 13.2652 18 13 18H5C4.73478 18 4.48043 17.8946 4.29289 17.7071C4.10536 17.5196 4 17.2652 4 17V6H14V17ZM11 16C11.2652 16 12 16 12 16C12 16 12 15.2652 12 15C12 12.6667 12 10.3333 12 8C11.3333 8 10.6667 8 10 8C10 10.3333 10 12.6667 10 15C10 15.2652 10 16 10 16C10 16 10.7348 16 11 16Z" fill="black" fill-opacity="0.2"/>
</svg>
