<svg width="24" height="24" viewBox="0 0 24 24" fill="none" xmlns="http://www.w3.org/2000/svg">
<path fill-rule="evenodd" clip-rule="evenodd" d="M12 3.66593C9.60677 3.66593 7.66667 5.60603 7.66667 7.99927C7.66667 10.3925 9.60677 12.3326 12 12.3326C14.3932 12.3326 16.3333 10.3925 16.3333 7.99927C16.3333 5.60603 14.3932 3.66593 12 3.66593ZM5.5 7.99927C5.5 4.40942 8.41015 1.49927 12 1.49927C15.5899 1.49927 18.5 4.40942 18.5 7.99927C18.5 11.5891 15.5899 14.4993 12 14.4993C8.41015 14.4993 5.5 11.5891 5.5 7.99927Z" fill="#15181C"/>
<path fill-rule="evenodd" clip-rule="evenodd" d="M12 17.882C10.4694 17.882 8.96569 18.3087 7.64015 19.1192C6.31461 19.9297 5.21392 21.0955 4.44872 22.4993L2.5 21.3081C3.46267 19.542 4.84741 18.0754 6.51503 17.0558C8.18264 16.0361 10.0744 15.4993 12 15.4993C13.9256 15.4993 15.8174 16.0361 17.485 17.0558C19.1526 18.0754 20.5373 19.542 21.5 21.3081L19.5513 22.4993C18.7861 21.0955 17.6854 19.9297 16.3599 19.1192C15.0343 18.3087 13.5306 17.882 12 17.882Z" fill="#15181C"/>
</svg>
