<svg width="16" height="18" viewBox="0 0 16 18" fill="none" xmlns="http://www.w3.org/2000/svg">
<path fill-rule="evenodd" clip-rule="evenodd" d="M7.99967 2.05458C6.00531 2.05458 4.38856 3.67133 4.38856 5.66569C4.38856 7.66005 6.00531 9.2768 7.99967 9.2768C9.99404 9.2768 11.6108 7.66005 11.6108 5.66569C11.6108 3.67133 9.99404 2.05458 7.99967 2.05458ZM2.58301 5.66569C2.58301 2.67415 5.00813 0.249023 7.99967 0.249023C10.9912 0.249023 13.4163 2.67415 13.4163 5.66569C13.4163 8.65723 10.9912 11.0824 7.99967 11.0824C5.00813 11.0824 2.58301 8.65723 2.58301 5.66569Z" fill="#15181C"/>
<path fill-rule="evenodd" clip-rule="evenodd" d="M7.99967 13.9016C6.72414 13.9016 5.47108 14.2572 4.36647 14.9326C3.26185 15.6081 2.3446 16.5795 1.70694 17.7493L0.0830078 16.7567C0.885232 15.285 2.03919 14.0628 3.42886 13.2131C4.81854 12.3634 6.39497 11.916 7.99967 11.916C9.60438 11.916 11.1808 12.3634 12.5705 13.2131C13.9602 14.0628 15.1141 15.285 15.9163 16.7567L14.2924 17.7493C13.6547 16.5795 12.7375 15.6081 11.6329 14.9326C10.5283 14.2572 9.27521 13.9016 7.99967 13.9016Z" fill="#15181C"/>
</svg>
