<svg width="48" height="48" viewBox="0 0 48 48" fill="none" xmlns="http://www.w3.org/2000/svg">
<path d="M21.6654 0.638093C23.1099 -0.212698 24.8901 -0.212698 26.3346 0.638094L42.668 10.258C44.1111 11.108 45 12.678 45 14.377V33.623C45 35.322 44.1111 36.892 42.668 37.742L26.3346 47.3619C24.8901 48.2127 23.1099 48.2127 21.6654 47.3619L5.33204 37.742C3.88889 36.892 3 35.322 3 33.623V14.377C3 12.678 3.8889 11.108 5.33204 10.258L21.6654 0.638093Z" fill="#FF6A2A"/>
<g clip-path="url(#clip0_2194_248480)">
<path fill-rule="evenodd" clip-rule="evenodd" d="M33 25.1118H25.1111V33.0007H22.8889V25.1118H15V22.8896H22.8889V15.0007H25.1111V22.8896H33V25.1118Z" fill="white"/>
</g>
<defs>
<clipPath id="clip0_2194_248480">
<rect width="24" height="24" fill="white" transform="translate(12 12)"/>
</clipPath>
</defs>
</svg>
