<svg width="66" height="66" viewBox="0 0 66 66" fill="none" xmlns="http://www.w3.org/2000/svg">
<path d="M27 3.4641C30.7128 1.32051 35.2872 1.32051 39 3.4641L55.5788 13.0359C59.2917 15.1795 61.5788 19.141 61.5788 23.4282V42.5718C61.5788 46.859 59.2917 50.8205 55.5788 52.9641L39 62.5359C35.2872 64.6795 30.7128 64.6795 27 62.5359L10.4212 52.9641C6.70835 50.8205 4.42116 46.859 4.42116 42.5718V23.4282C4.42116 19.141 6.70835 15.1795 10.4212 13.0359L27 3.4641Z" fill="white"/>
<path fill-rule="evenodd" clip-rule="evenodd" d="M34.5 33L30 28.5V25L38 33L30 41V37.5L34.5 33Z" fill="#15181C"/>
</svg>
